<?xml version="1.0" encoding="utf-8"?>
<!-- Generator: Adobe Illustrator 24.3.0, SVG Export Plug-In . SVG Version: 6.00 Build 0)  -->
<svg version="1.1" id="Layer_1" xmlns="http://www.w3.org/2000/svg" xmlns:xlink="http://www.w3.org/1999/xlink" x="0px" y="0px"
	 viewBox="0 0 643 399.6" style="enable-background:new 0 0 643 399.6;" xml:space="preserve">
<style type="text/css">
	.st0{fill:none;stroke:#DED8D5;stroke-width:1.97;stroke-miterlimit:10;}
	.st1{fill:#FFB1A5;}
	.st2{fill:#EAD254;}
	.st3{fill:#00857B;}
	.st4{fill:#EDEDED;}
	.st5{fill:#C98BD2;}
	.st6{fill:none;stroke:#FFFFFF;stroke-width:1.65;stroke-linecap:round;stroke-linejoin:round;}
	.st7{fill:#FFFFFF;}
	.st8{fill:#56DFED;}
	.st9{fill:none;stroke:#FFFFFF;stroke-width:1.18;stroke-miterlimit:10;}
	.st10{clip-path:url(#SVGID_2_);}
	.st11{fill:#005683;}
	.st12{fill:none;stroke:#282828;stroke-width:1.4;stroke-linecap:round;stroke-linejoin:round;}
	.st13{fill:#F3978E;}
	.st14{fill:none;stroke:#282828;stroke-width:1.53;stroke-linecap:round;stroke-linejoin:round;}
	.st15{fill:#282828;}
	.st16{fill:none;stroke:#FFFFFF;stroke-width:1.95;stroke-miterlimit:10;}
</style>
<g id="Layer_2_1_">
	<g id="Layer_1-2">
		<g id="Layer_2-2">
			<g id="OBJECTS">
				<line class="st0" x1="70.8" y1="123.4" x2="570.2" y2="123.4"/>
				<path class="st0" d="M77.4,90.6h486.3c3.6,0,6.5,2.9,6.5,6.5v295.9c0,3.6-2.9,6.5-6.5,6.5H77.4c-3.6,0-6.5-2.9-6.5-6.5V97.2
					C70.8,93.6,73.8,90.6,77.4,90.6z"/>
				<path class="st1" d="M103.8,107.3c0,2.5-2,4.6-4.6,4.6s-4.6-2-4.6-4.6s2-4.6,4.6-4.6l0,0l0,0
					C101.7,102.8,103.8,104.8,103.8,107.3z"/>
				<path class="st2" d="M121.5,107.3c0,2.5-2,4.6-4.6,4.6s-4.6-2-4.6-4.6s2-4.6,4.6-4.6l0,0l0,0
					C119.5,102.8,121.5,104.8,121.5,107.3z"/>
				<path class="st3" d="M139.3,107.3c0,2.5-2,4.6-4.6,4.6c-2.5,0-4.6-2-4.6-4.6c0-2.5,2-4.6,4.6-4.6
					C137.2,102.8,139.3,104.8,139.3,107.3z"/>
				<path class="st4" d="M517.7,113.1h117.4c3.3,0,6,2.7,6,6v108.5c0,3.3-2.7,6-6,6H517.7c-3.3,0-6-2.7-6-6V119.1
					C511.7,115.8,514.4,113.1,517.7,113.1z"/>
				<path class="st0" d="M517.7,113.1h117.4c3.3,0,6,2.7,6,6v108.5c0,3.3-2.7,6-6,6H517.7c-3.3,0-6-2.7-6-6V119.1
					C511.7,115.8,514.4,113.1,517.7,113.1z"/>
				<path class="st5" d="M546.1,140.2h61c3.3,0,6,2.7,6,6v50c0,3.3-2.7,6-6,6h-61c-3.3,0-6-2.7-6-6v-50
					C540.1,142.9,542.8,140.2,546.1,140.2z"/>
				<polygon class="st6" points="593.3,181.6 564.7,181.6 559.6,181.6 559.6,159 593.3,159 593.3,164.6 				"/>
				<polyline class="st6" points="559.6,159 576.4,172.2 593.3,159 				"/>
				<path class="st4" d="M6.7,215.5h111.9c3.2,0,5.7,2.6,5.7,5.7v97.6c0,3.2-2.6,5.7-5.7,5.7H6.7c-3.2,0-5.7-2.6-5.7-5.7v-97.6
					C1,218.1,3.5,215.5,6.7,215.5z"/>
				<path class="st0" d="M6.7,215.5h111.9c3.2,0,5.7,2.6,5.7,5.7v97.6c0,3.2-2.6,5.7-5.7,5.7H6.7c-3.2,0-5.7-2.6-5.7-5.7v-97.6
					C1,218.1,3.5,215.5,6.7,215.5z"/>
				<path class="st1" d="M33.3,234.2h58.1c3.7,0,6.6,3,6.6,6.6v56.1c0,3.7-3,6.6-6.6,6.6H33.3c-3.7,0-6.6-3-6.6-6.6v-56.1
					C26.7,237.2,29.7,234.2,33.3,234.2z"/>
				<path class="st7" d="M48.5,255.2c-7.9,7.9-7.9,20.6,0,28.5s20.6,7.9,28.5,0c7.9-7.9,7.9-20.6,0-28.5l0,0
					C69.2,247.4,56.4,247.4,48.5,255.2z M77,258.1h-6.4c-0.7-2.1-1.5-4.1-2.5-6.1C71.6,253.2,74.7,255.3,77,258.1z M55.4,268.3
					c0-2.6,0.3-5.3,1-7.8h12.9c0.6,2.6,0.9,5.2,0.9,7.8H55.4z M70.1,270.7c-0.2,2.6-0.7,5.3-1.4,7.8H56.9c-0.7-2.5-1.2-5.2-1.4-7.8
					H70.1z M62.8,251.3c1,0,1.9,0.1,2.8,0.2c1.2,2.1,2.2,4.3,2.9,6.6H57c0.8-2.3,1.8-4.5,3-6.6C60.9,251.4,61.9,251.3,62.8,251.3z
					 M57.5,252.1c-1,1.9-1.8,4-2.5,6.1h-6.4C50.9,255.3,54,253.2,57.5,252.1z M47,260.5h7.4c-0.6,2.6-1,5.2-1,7.8h-8.7
					C44.8,265.6,45.6,262.9,47,260.5z M47,278.5c-1.4-2.4-2.2-5.1-2.3-7.8h8.7c0.1,2.6,0.6,5.3,1.2,7.8H47z M48.6,280.9h6.7
					c0.7,2.1,1.5,4.1,2.5,6.1C54.1,286,50.9,283.8,48.6,280.9L48.6,280.9z M62.8,287.7c-0.8,0-1.6-0.1-2.4-0.1
					c-1.1-2.2-2-4.4-2.8-6.7H68c-0.8,2.3-1.7,4.5-2.8,6.7C64.4,287.6,63.6,287.7,62.8,287.7L62.8,287.7z M67.8,287
					c1-2,1.8-4,2.5-6.1H77C74.7,283.8,71.5,286,67.8,287L67.8,287z M78.6,278.5H71c0.7-2.6,1.1-5.2,1.2-7.8H81
					C80.8,273.4,80,276.1,78.6,278.5L78.6,278.5z M81,268.3h-8.7c0-2.6-0.4-5.3-1-7.8h7.4C80,262.9,80.8,265.6,81,268.3z"/>
				<path class="st5" d="M112,62.1H10.6c-2.1,0-3.8-1.7-3.8-3.8l0,0l0,0c0-2.1,1.7-3.8,3.8-3.8H112c2.1,0,3.8,1.7,3.8,3.8l0,0
					C115.8,60.4,114.1,62.1,112,62.1z"/>
				<path class="st8" d="M639.2,309.8H590c-2.1,0-3.8-1.7-3.8-3.8l0,0c0-2.1,1.7-3.8,3.7-3.8c0,0,0,0,0,0h49.2
					c2.1,0,3.8,1.7,3.8,3.8l0,0C643,308.1,641.3,309.8,639.2,309.8z"/>
				<path class="st5" d="M598.8,342.3h6c1.6,0,2.9,1.3,2.9,2.9v5.7c0,1.6-1.3,2.9-2.9,2.9h-6c-1.6,0-2.9-1.3-2.9-2.9v-5.7
					C595.9,343.6,597.2,342.3,598.8,342.3z"/>
				<path class="st1" d="M28.7,368.6h6c1.6,0,2.9,1.3,2.9,2.9v5.7c0,1.6-1.3,2.9-2.9,2.9h-6c-1.6,0-2.9-1.3-2.9-2.9v-5.7
					C25.8,369.9,27.1,368.6,28.7,368.6z"/>
				<path class="st1" d="M394.9,27.8H495c1.7,0,3,1.3,3,3v24.4c0,1.7-1.3,3-3,3H394.9c-1.7,0-3-1.3-3-3V30.8
					C391.9,29.1,393.2,27.8,394.9,27.8z"/>
				<line class="st9" x1="406.3" y1="38.6" x2="477.5" y2="38.6"/>
				<line class="st9" x1="406.3" y1="45.9" x2="435.3" y2="45.9"/>
				<polygon class="st1" points="403.4,54.8 403.4,66.6 418.4,54.8 				"/>
				<path class="st8" d="M198.6,0h50.5c3.6,0,6.5,2.9,6.5,6.5l0,0v47.1c0,3.6-2.9,6.4-6.5,6.4h-48.4c-4.7,0-8.5-3.8-8.5-8.5v0l0,0
					v-45C192.1,2.9,195,0,198.6,0C198.6,0,198.6,0,198.6,0L198.6,0z"/>
				<path class="st7" d="M238.6,34.5l-3.6-3.6c-0.6-0.7-1.4-1.1-2.3-1.1c-0.9,0-1.7,0.4-2.3,1l-2.1,2.1l-0.4-0.2
					c-0.2-0.1-0.4-0.2-0.6-0.3c-2-1.3-3.9-3-5.4-4.9c-0.7-0.8-1.2-1.7-1.7-2.6c0.5-0.5,1-1,1.4-1.4l0.6-0.6c0.7-0.6,1.1-1.5,1.1-2.4
					c0-0.9-0.4-1.8-1.1-2.4l-1.8-1.8c-0.2-0.2-0.4-0.4-0.6-0.6l-1.2-1.2c-0.6-0.6-1.4-1-2.3-1c-0.9,0-1.7,0.4-2.3,1l-2.3,2.3
					c-0.8,0.9-1.4,2-1.5,3.2c-0.1,1.7,0.2,3.4,0.8,4.9c1.1,3.1,2.8,6,5,8.5c2.8,3.4,6.4,6.1,10.3,8.1c1.8,0.9,3.8,1.5,5.8,1.7h0.4
					c1.5,0,2.9-0.6,3.9-1.7l0.1-0.1c0.4-0.4,0.8-0.8,1.2-1.2l0.8-0.8c1.3-1.2,1.4-3.3,0.1-4.6c0,0,0,0,0,0L238.6,34.5z M237.1,37.8
					l-0.8,0.8c-0.4,0.4-0.8,0.8-1.3,1.3c-0.6,0.7-1.4,1-2.3,1h-0.3c-1.8-0.2-3.4-0.7-5-1.5c-3.7-1.8-7-4.4-9.6-7.5
					c-2-2.3-3.6-5-4.7-7.8c-0.6-1.2-0.9-2.6-0.8-4c0.1-0.7,0.4-1.4,0.9-1.9l2.2-2.2c0.2-0.3,0.6-0.4,0.9-0.5c0.4,0,0.7,0.2,0.9,0.5
					l1.1,1.1c0.2,0.2,0.4,0.4,0.6,0.6l1.8,1.8c0.2,0.2,0.4,0.6,0.4,0.9c0,0.3-0.2,0.7-0.4,0.9l-0.6,0.6l-1.6,1.6v0.1
					c-0.5,0.4-0.6,1-0.4,1.6v0.1c0.5,1.3,1.3,2.4,2.1,3.5c1.6,2.1,3.6,3.9,5.8,5.3c0.3,0.2,0.5,0.3,0.8,0.5c0.2,0.1,0.4,0.2,0.6,0.3
					l0.1,0.1c0.6,0.3,1.3,0.2,1.8-0.3l2.3-2.3c0.2-0.3,0.5-0.4,0.9-0.5c0.3,0,0.6,0.2,0.8,0.5l3.6,3.6c0.5,0.4,0.6,1.2,0.2,1.7
					c0,0,0,0,0,0C237.3,37.7,237.2,37.7,237.1,37.8z"/>
				<g>
					<defs>
						<rect id="SVGID_1_" x="116.8" y="66.1" width="459.3" height="332.7"/>
					</defs>
					<clipPath id="SVGID_2_">
						<use xlink:href="#SVGID_1_"  style="overflow:visible;"/>
					</clipPath>
					<g class="st10">
						<polygon class="st11" points="261.3,366.1 261.4,474.5 315,474.5 319.1,366.1 						"/>
						<polygon class="st11" points="377.7,366.1 377.7,474.5 324,474.5 319.9,366.1 						"/>
						<rect x="293" y="366.1" class="st11" width="55.5" height="37.7"/>
						<line class="st12" x1="300.7" y1="403.7" x2="339" y2="403.7"/>
						<path class="st1" d="M411.6,271.5c3.3,36.7-0.2,63.5,0.8,131.1l-32,1.3l-4.8-126.5L411.6,271.5z"/>
						<path class="st13" d="M379.6,300.1c0,0,19.8-1.8,33.4-10.8l-0.4-7.9l-33,4.5L379.6,300.1z"/>
						<path class="st5" d="M347.8,186.9c0,0,63,15.8,74.4,95.8c0,0-30.8,13.4-61.7,7.6l7-26.7L347.8,186.9z"/>
						<path class="st1" d="M159.7,220.1l46.9,55.4l-14.4,40.4c0,0-35.6-49.5-51.6-87.8L159.7,220.1z"/>
						<path class="st1" d="M161.2,222.1c0,0-16.4,9.3-20.6,5.9c-7.3-5.9-13.4-27.4-13.4-27.4s30.8-11.7,30.5-11.2
							S161.2,222.1,161.2,222.1z"/>
						<path class="st1" d="M161.2,222.1c-0.3-1.7,6.1-19.5,8.3-26.2c0.5-1.6-0.4-3.2-2-3.6c0,0,0,0,0,0c-0.1,0-0.2-0.1-0.3-0.1l0,0
							c-1.5-0.4-3,0.2-3.8,1.6l-7.7,13.2L161.2,222.1z"/>
						<path class="st1" d="M160.7,202.8l-5.3-26.4c-0.3-1.8-2-3-3.8-2.6l0,0c-1.5,0.3-2.6,1.7-2.3,3.2l2.3,19.6L160.7,202.8z"/>
						<path class="st1" d="M150.1,193.1l-7.1-18.8c-0.6-1.6-2.4-2.5-4.1-2l0,0c-1.4,0.5-2.3,1.9-1.9,3.4l5.3,21.8L150.1,193.1z"/>
						<path class="st1" d="M142.4,198.6l-9.1-18.5c-0.8-1.7-2.9-2.5-4.6-1.8l0,0c-1.6,0.7-2.3,2.5-1.7,4.1c0,0,0,0,0,0l0,0l7.3,17.5
							L142.4,198.6z"/>
						<path class="st1" d="M127.2,200.6l-7.2-11.3c-0.6-1.3,0-2.8,1.2-3.4l0,0c1.3-0.6,2.8-0.1,3.6,1l9.4,13L127.2,200.6z"/>
						<path class="st14" d="M159.2,200.8c0,0-10.7-1.1-11.8,13.2"/>
						<path class="st1" d="M182.7,297c0,0,8.8,30.5,26.4,26.5s44.9-41.6,44.9-41.6l-6.1-64.1l-49.3,60.7L182.7,297z"/>
						<path class="st13" d="M213.9,259.6c0,0,16.6,25.1,30.9,34l9.3-11.7l-35.9-27.7L213.9,259.6z"/>
						<path class="st5" d="M286.8,185.5c0,0-48.9,11-74.9,67.8c0,0,15.8,23.7,41,34.3l16.9-20.7L286.8,185.5z"/>
						<path class="st5" d="M286.8,185.3c-11.5,5.9-22,13.6-31.1,22.8l3.8,166.1h120.3L379.4,209c0,0-15.2-14.8-31.6-22.1
							C333.8,180.7,300.3,178.4,286.8,185.3z"/>
						<path class="st12" d="M327,232.8h33.5v16.7c0,9.2-7.5,16.7-16.7,16.7l0,0c-9.2,0-16.7-7.5-16.7-16.7V232.8z"/>
						<line class="st12" x1="379.6" y1="290.9" x2="381.1" y2="236.5"/>
						<line class="st12" x1="257.5" y1="281.8" x2="254.9" y2="234.7"/>
						<path class="st15" d="M288.2,124.7l-5-24.8c-0.3-2-1.1-5.2-0.1-8.1c1.6-4.8,7.4-14.2,17.4-9.9l2.2,9.8c0,0-10.4,2.1-14.5,15.7
							L288.2,124.7z"/>
						<path class="st15" d="M299.7,87c-0.2,3.3-3.1,17.5-13.2,22.7C286.5,109.7,277.7,90.7,299.7,87z"/>
						<path class="st1" d="M335.2,180.8L335.2,180.8v-42.1h-38.8v42.1l-11.6,5.2c0,0,2.7,17.5,31.4,17.9s31.6-17,31.6-17
							L335.2,180.8z"/>
						<path class="st15" d="M300.5,81.9c0,0,7.1-18.8,29.1-8.8c13.3,6,17,14.2,18.6,19.9c0.5,2.2,0.7,4.5,0.6,6.7l-5.3,25
							l-20.8-34.6l-20.1,1.6L300.5,81.9z"/>
						<path class="st13" d="M343.5,124.7c0,0,2.6-4.2,8-2.1s3,15.2-5.1,16.8c-1.8,0.3-3.7-0.2-5.2-1.4
							C341.2,138,343.1,128.4,343.5,124.7z"/>
						<path class="st12" d="M350.4,127.2c0,0-4.5-1.5-7.7,5.2"/>
						<path class="st13" d="M288.2,124.7c0,0-2.6-4.2-8-2.1s-3,15.2,5.1,16.8c1.8,0.3,3.7-0.2,5.2-1.4
							C290.5,138,288.5,128.4,288.2,124.7z"/>
						<path class="st12" d="M281.2,127.2c0,0,4.5-1.5,7.7,5.2"/>
						<path class="st1" d="M344,112.2c0,7.9-0.8,24.4-5.6,34.3c-4.6,9.2-12.1,14.2-22,14.5s-17.3-3.5-23.2-15.5s-5.6-33.1-5.6-33.1
							s0-28.2,27.9-28.2C344.9,84.1,344,112.2,344,112.2z"/>
						<path class="st15" d="M296.7,151.4c0,0,3.2,16.5,17.6,18.4c16.5,2.2,20.9-18,20.9-18s-7.3,9.2-18.9,9.2
							C308.7,160.9,301.4,157.4,296.7,151.4z"/>
						<path class="st12" d="M313.8,124v6.5c0,0.3,0,0.5,0.1,0.8c0.4,1,1.5,1.5,2.5,1.2l2.2-0.6"/>
						<path class="st15" d="M305.5,120.8c0,1.4-1.1,2.6-2.5,2.6c-1.4,0-2.6-1.1-2.6-2.5c0-1.4,1.1-2.6,2.5-2.6c0,0,0,0,0,0l0,0
							C304.4,118.3,305.5,119.4,305.5,120.8z"/>
						<path class="st15" d="M329.4,120.8c0,1.4-1.1,2.6-2.5,2.6c-1.4,0-2.6-1.1-2.6-2.5c0-1.4,1.1-2.6,2.5-2.6l0,0
							C328.2,118.3,329.4,119.4,329.4,120.8z"/>
						<path class="st15" d="M320.3,108.2l17.1,4.4c0,0-0.8-4.8-7.8-6.5S320.3,108.2,320.3,108.2z"/>
						<path class="st15" d="M309.7,108.2l-17.1,4.4c0,0,0.8-4.8,7.8-6.5S309.7,108.2,309.7,108.2z"/>
						<path class="st12" d="M306.3,137.1c0,0,2.5,1.9,9.1,1.9c3.4,0.1,6.7-0.6,9.8-1.9"/>
						<circle class="st16" cx="302.3" cy="121.6" r="10.8"/>
						<circle class="st16" cx="328.9" cy="121.6" r="10.8"/>
						<path class="st16" d="M313.1,121.6c0,0,2.6-2.4,4.9,0"/>
						<line class="st16" x1="291.5" y1="121.6" x2="287.9" y2="121.5"/>
						<line class="st16" x1="339.6" y1="121.6" x2="343.7" y2="121.5"/>
						<path class="st15" d="M296.7,87.7c0,0,5.2,14.7,28.6,14.3c15.9-0.3,19.7,11.2,19.7,11.2s-2.8-25.7-3.5-25.5
							s-24.2-6.3-24.2-6.3L296.7,87.7z"/>
					</g>
				</g>
			</g>
		</g>
	</g>
</g>
</svg>
